<?xml version="1.0" encoding="utf-8"?>
<svg viewBox="0 0 500 500" xmlns="http://www.w3.org/2000/svg">
  <path class="st0" d="M 213.874 165.628 L 192.764 160.468 L 192.295 111.682 C 192.295 79.784 219.033 53.514 252.339 53.514 C 285.645 53.514 312.385 79.784 312.385 111.682 L 312.854 160.468 L 289.867 164.221 L 289.398 114.965 C 289.398 89.634 278.609 75.092 252.808 75.092 C 226.54 75.092 213.405 90.573 213.405 115.905 L 213.874 165.628 Z" style="clip-rule: evenodd; fill-rule: evenodd; fill: rgb(9, 41, 81);"/>
  <path class="st0" d="M 451.707 172.196 C 451.707 156.247 438.103 143.112 421.215 143.112 L 82.058 143.112 C 65.17 143.112 51.566 156.247 51.566 172.196 L 51.566 420.349 C 51.566 436.298 65.17 449.432 82.058 449.432 L 421.215 449.432 C 438.103 449.432 451.707 436.298 451.707 420.349 L 451.707 172.196 Z" style="clip-rule: evenodd; fill-rule: evenodd; fill: rgb(13, 58, 114);"/>
  <path class="st1" d="M 417.932 156.536 C 417.932 149.28 406.673 143.112 393.069 143.112 L 114.426 143.112 C 100.822 143.112 89.563 148.918 89.563 156.536 L 89.563 270.465 C 89.563 277.723 100.822 283.891 114.426 283.891 L 392.6 283.891 C 406.204 283.891 417.463 278.086 417.463 270.465 L 417.463 156.536 L 417.932 156.536 Z" style="clip-rule: evenodd; fill-rule: evenodd; fill: rgb(26, 92, 146);"/>
  <path class="st2" d="M 186.198 278.326 C 186.198 268.475 178.222 260.97 168.372 260.97 C 158.52 260.97 151.015 268.944 151.015 278.326 L 151.015 301.781 C 151.015 311.631 158.989 319.606 168.372 319.606 C 178.222 319.606 186.198 311.631 186.198 301.781 L 186.198 278.326 Z" style="clip-rule: evenodd; fill-rule: evenodd; fill: rgb(255, 166, 0);"/>
  <path class="st2" d="M 352.727 278.326 C 352.727 268.475 344.753 260.97 335.37 260.97 C 325.518 260.97 317.544 268.944 317.544 278.326 L 317.544 301.781 C 317.544 311.631 325.518 319.606 335.37 319.606 C 345.222 319.606 352.727 311.631 352.727 301.781 L 352.727 278.326 Z" style="clip-rule: evenodd; fill-rule: evenodd; fill: rgb(255, 166, 0);"/>
  <path style="stroke-width: 0px; stroke: rgb(0, 0, 0); fill: rgb(255, 0, 0);" d="M 214.362 307.859 L 291.587 305.847 C 267.59 391.778 241.849 392.448 214.362 307.859 Z"/>
</svg>